<svg width="121" height="48" viewBox="0 0 121 48" fill="none" xmlns="http://www.w3.org/2000/svg">
<path d="M10.3433 34.4583V34.261L18.2876 26.8597C22.4323 22.9615 24.1593 19.9517 24.1593 16.3496C24.1593 10.5177 19.5652 6.4165 12.8631 6.16529V12.8856C15.0882 13.1194 16.4123 14.5661 16.4123 16.5962C16.4123 19.0633 14.9816 20.9384 11.4782 24.2444L0.178672 35.0506V41.2676H24.7021V34.4583H10.3433ZM11.5733 6.16479C4.68233 6.41418 0.0800781 10.6071 0.0800781 17.879H7.48123C7.48123 14.5845 9.29966 13.1122 11.5733 12.8841V6.16479Z" fill="black"/>
<path d="M54.493 23.8766C54.493 13.8532 50.5799 6.47478 41.6181 6.13525V12.8739C45.3622 13.235 46.7461 16.7787 46.7461 23.8766C46.7461 31.0256 45.4043 34.572 41.6181 34.9295V41.6677C50.5799 41.3279 54.493 33.9483 54.493 23.8766ZM40.328 6.13525C31.3662 6.47478 27.4531 13.8532 27.4531 23.8766C27.4531 33.9483 31.3662 41.3279 40.328 41.6677V34.9295C36.5418 34.572 35.2001 31.0256 35.2001 23.8766C35.2001 16.7787 36.5839 13.235 40.328 12.8739V6.13525Z" fill="black"/>
<path d="M120.919 23.8766C120.919 13.8532 117.006 6.47478 108.044 6.13525V12.8739C111.788 13.235 113.172 16.7787 113.172 23.8766C113.172 31.0256 111.83 34.572 108.044 34.9295V41.6677C117.006 41.3279 120.919 33.9483 120.919 23.8766ZM106.754 6.13525C97.792 6.47478 93.8789 13.8532 93.8789 23.8766C93.8789 33.9483 97.792 41.3279 106.754 41.6677V34.9295C102.968 34.572 101.626 31.0256 101.626 23.8766C101.626 16.7787 103.009 13.235 106.754 12.8739V6.13525Z" fill="black"/>
<path d="M73.7226 13.4853H88.8215V6.7251H67.5056L66.1732 26.8077H73.5253C74.7589 25.2287 76.2884 24.3899 78.4597 24.3899C82.2588 24.3899 83.7392 27.153 83.7392 29.5218C83.7392 31.8656 82.4437 34.5822 79.1965 34.9446V41.6731C86.9728 41.3613 91.4366 36.2168 91.4366 29.5218C91.4366 23.0577 86.6011 18.2223 79.6439 18.2223C77.2259 18.2223 74.9563 18.7649 73.3773 20.0478H73.1799L73.7226 13.4853ZM73.3277 31.002H65.6797C65.6797 36.6308 70.6606 41.4443 77.9065 41.6822V34.9683C74.8225 34.7522 73.6074 32.7727 73.3277 31.002Z" fill="black"/>
<path d="M60.7176 0H59.4277V48H60.7176V0Z" fill="black"/>
</svg>
